<?xml version="1.0" encoding="UTF-8" standalone="no"?>
<svg
   xmlns:dc="http://purl.org/dc/elements/1.1/"
   xmlns:cc="http://creativecommons.org/ns#"
   xmlns:rdf="http://www.w3.org/1999/02/22-rdf-syntax-ns#"
   xmlns:svg="http://www.w3.org/2000/svg"
   xmlns="http://www.w3.org/2000/svg"
   xmlns:sodipodi="http://sodipodi.sourceforge.net/DTD/sodipodi-0.dtd"
   xmlns:inkscape="http://www.inkscape.org/namespaces/inkscape"
   version="1.1"
   id="svg2"
   xml:space="preserve"
   width="1400"
   height="500"
   viewBox="0 0 1260 450"
   sodipodi:docname="nisra-only-white.svg"
   inkscape:version="0.92.4 (5da689c313, 2019-01-14)"><title
     id="title820">NISRA Logo</title><metadata
     id="metadata8"><rdf:RDF><cc:Work
         rdf:about=""><dc:format>image/svg+xml</dc:format><dc:type
           rdf:resource="http://purl.org/dc/dcmitype/StillImage" /><dc:title>NISRA Logo</dc:title></cc:Work></rdf:RDF></metadata><defs
     id="defs6" /><sodipodi:namedview
     pagecolor="#ffffff"
     bordercolor="#666666"
     borderopacity="1"
     objecttolerance="10"
     gridtolerance="10"
     guidetolerance="10"
     inkscape:pageopacity="0"
     inkscape:pageshadow="2"
     inkscape:window-width="3840"
     inkscape:window-height="2081"
     id="namedview4"
     showgrid="false"
     inkscape:zoom="1.0585543"
     inkscape:cx="515.22471"
     inkscape:cy="-70.587715"
     inkscape:window-x="3831"
     inkscape:window-y="-9"
     inkscape:window-maximized="1"
     inkscape:current-layer="g831" /><g
     id="g10"
     inkscape:groupmode="layer"
     inkscape:label="ink_ext_XXXXXX"
     transform="matrix(1.3333333,0,0,-1.3333333,0,493.91332)"><g
       id="g831"><g
   id="g109"
   style="fill:#ffffff;fill-opacity:1"><path
     inkscape:connector-curvature="0"
     id="path98"
     style="fill:#ffffff;fill-opacity:1;fill-rule:nonzero;stroke:none;stroke-width:0.1"
     d="m 227.61127,178.90725 -7.069,4.082 -52.17,30.12 -3.707,2.141 -3.363,-1.941 -113.4262,-65.487 -6.4386,-3.718 -32.5101999,-18.7691 C 25.46357,96.693349 46.10777,76.049249 74.74997,59.513249 c 28.3214,-16.35191 59.2353,-24.123 89.7463,-24.123 42.553,0 84.307,15.1289 117.101,43.1852 1.881,1.6078 3.729,3.2648 5.549,4.9589 12.794,11.9039 24.063,25.877801 33.256,41.800801 l -92.791,53.5721" /><path
     inkscape:connector-curvature="0"
     id="path100"
     style="fill:#ffffff;fill-opacity:1;fill-rule:nonzero;stroke:none;stroke-width:0.1"
     d="m 161.12927,221.37225 0.173,0.1 v 117.536 h 7.07 c 19.026,0 37.623,-2.815 55.504,-8.378 v 34.114 c -33.073,0 -61.274,-7.557 -89.915,-24.093 -66.832,-38.585 -99.516,-113.589 -87.4789,-185.47 l 114.6469,66.191" /><path
     inkscape:connector-curvature="0"
     id="path102"
     style="fill:#ffffff;fill-opacity:1;fill-rule:nonzero;stroke:none;stroke-width:0.1"
     d="m 230.94527,320.74525 c -2.334,0.866 -4.692,1.679 -7.069,2.45 -17.483,5.668 -36.133,8.743 -55.504,8.743 v -110.665 l 55.504,-32.046 7.069,-4.081 92.992,-53.6888 6.122,-3.534 -3.535,-6.123 c -8.988,-15.5672 -20.14,-29.669201 -33.016,-41.939101 l 30.601,-17.668 c 16.537,28.6418 24.093,56.843001 24.093,89.914901 0,77.312 -48.79,143.221 -117.257,168.637" /></g><text
   xml:space="preserve"
   style="font-style:normal;font-variant:normal;font-weight:bold;font-stretch:normal;font-size:225px;line-height:1.25;font-family:Arial;-inkscape-font-specification:'Arial, Bold';font-variant-ligatures:normal;font-variant-caps:normal;font-variant-numeric:normal;font-feature-settings:normal;text-align:start;letter-spacing:0px;word-spacing:0px;writing-mode:lr-tb;text-anchor:start;fill:#ffffff;fill-opacity:1;stroke:none;stroke-width:1.88321352;"
   x="457.24933"
   y="-82.794655"
   id="text1427"
   transform="scale(0.7959505,-1.2563595)"><tspan
     sodipodi:role="line"
     x="457.24933"
     y="-82.794655"
     id="tspan1425"
     style="stroke-width:1.88321352;fill:#ffffff;fill-opacity:1;"><tspan
       x="457.24933"
       y="-82.794655"
       style="font-style:normal;font-variant:normal;font-weight:bold;font-stretch:normal;font-size:225px;font-family:Arial;-inkscape-font-specification:'Arial, Bold';font-variant-ligatures:normal;font-variant-caps:normal;font-variant-numeric:normal;font-feature-settings:normal;text-align:start;writing-mode:lr-tb;text-anchor:start;fill:#ffffff;fill-opacity:1;stroke-width:1.88321352;"
       id="tspan1423">NISRA</tspan></tspan></text>

</g></g></svg>